<?xml version="1.0" encoding="UTF-8" standalone="no"?>
<!-- Generator: Adobe Illustrator 23.0.3, SVG Export Plug-In . SVG Version: 6.00 Build 0)  -->

<svg
   xmlns:dc="http://purl.org/dc/elements/1.1/"
   xmlns:cc="http://creativecommons.org/ns#"
   xmlns:rdf="http://www.w3.org/1999/02/22-rdf-syntax-ns#"
   xmlns:svg="http://www.w3.org/2000/svg"
   xmlns="http://www.w3.org/2000/svg"
   xmlns:sodipodi="http://sodipodi.sourceforge.net/DTD/sodipodi-0.dtd"
   xmlns:inkscape="http://www.inkscape.org/namespaces/inkscape"
   version="1.1"
   id="Layer_1"
   x="0px"
   y="0px"
   viewBox="0 0 612 115.6"
   style="enable-background:new 0 0 612 115.6;"
   xml:space="preserve"
   sodipodi:docname="logo.svg"
   inkscape:version="0.92.1 r15371"><metadata
     id="metadata22"><rdf:RDF><cc:Work
         rdf:about=""><dc:format>image/svg+xml</dc:format><dc:type
           rdf:resource="http://purl.org/dc/dcmitype/StillImage" /></cc:Work></rdf:RDF></metadata><defs
     id="defs20"><filter
       style="color-interpolation-filters:sRGB"
       id="filter4530-8"
       x="-0.0036776999"
       y="-0.016279999"
       width="1.0074"
       height="1.0326"><feGaussianBlur
         stdDeviation="0.23505127"
         id="feGaussianBlur24" /></filter><linearGradient
       id="linearGradient5193"
       x1="10.583"
       x2="13.758"
       y1="2.8836"
       y2="12.609"
       gradientTransform="matrix(1.2124,0,0,1.2124,14.48,-33.096)"
       gradientUnits="userSpaceOnUse"><stop
         stop-color="#ce2f96"
         offset="0"
         id="stop27" /><stop
         stop-color="#00a9f0"
         offset="1"
         id="stop29" /></linearGradient></defs><sodipodi:namedview
     pagecolor="#ffffff"
     bordercolor="#666666"
     borderopacity="1"
     objecttolerance="10"
     gridtolerance="10"
     guidetolerance="10"
     inkscape:pageopacity="0"
     inkscape:pageshadow="2"
     inkscape:window-width="1920"
     inkscape:window-height="986"
     id="namedview18"
     showgrid="false"
     inkscape:zoom="0.91503268"
     inkscape:cx="110.925"
     inkscape:cy="74.192856"
     inkscape:window-x="-11"
     inkscape:window-y="-11"
     inkscape:window-maximized="1"
     inkscape:current-layer="Layer_1" /><style
     type="text/css"
     id="style2">
	.st0{fill:#4592FF;}
</style><g
     transform="matrix(10.817742,0,0,10.817742,80.127867,160.27963)"
     id="g64"><g
       transform="matrix(0.72025,0,0,0.72025,-9.2851,7.6804)"
       id="g62"><g
         transform="matrix(1.6832,0,0,1.6832,3.6217,-31.646)"
         id="g60"><path
           style="opacity:0.7;fill:#cccccc;stroke-width:2.24539995;filter:url(#filter4530-8)"
           inkscape:connector-curvature="0"
           transform="matrix(0.24225,0,0,0.24225,1.3706,-12.113)"
           d="m 11.307,52.176 c 0,0 0.55648,6.6947 1.4316,12.258 0.74677,4.7467 0.88242,5.3241 1.5508,8.2031 0.60392,2.6015 1.0612,3.858 1.8027,4.6387 0.68911,0.72544 1.2823,0.93957 1.9668,1.1387 1.6654,0.48442 4.796,0.68359 7.2441,0.68359 2.4479,0 5.4251,-0.0276 7.084,-0.4375 0.74951,-0.18533 1.5259,-0.35733 2.5156,-0.85156 0.83573,-0.41728 1.3652,-0.95117 1.3652,-0.95117 0,0 -0.6374,-3.7398 -1.1094,-5.8242 -0.31626,-1.3967 -0.63484,-2.8824 -1.3223,-4.1387 -0.34812,-0.63618 -0.79146,-1.1694 -1.4199,-1.5312 -0.73,-0.42036 -1.9256,-0.78906 -2.7617,-0.89062 -1.1002,-0.13368 -2.3027,-0.3736 -5.5293,-0.35742 -3.2432,0.01625 -6.6465,0.73242 -6.6465,0.73242 0,0 -0.47819,-3.689 -0.77344,-5.5469 -0.27057,-1.7025 -0.66406,-5.1289 -0.66406,-5.1289 0,0 -0.13036,-0.89416 -0.42188,-1.2051 -0.27493,-0.29322 -1.1113,-0.47266 -1.1113,-0.47266 z m 32.188,5.9707 c -0.71235,0.0144 -1.2598,0.04883 -1.2598,0.04883 0,0 0.193,1.7781 0.53125,2.3086 0.30539,0.47887 0.78722,0.75663 1.2812,0.95703 0.64672,0.26234 3.7891,0.34375 3.7891,0.34375 0,0 -0.20449,-1.8144 -0.53125,-2.4668 C 47.14313,59.0139 46.9174,58.6988 46.618,58.49436 46.36519,58.32175 46.04707,58.2486 45.743,58.21311 45.08445,58.13625 44.2073,58.13231 43.495,58.1467 Z m 56.557,1.3145 v 4.0801 h -4.4863 v 1.166 h 4.4551 v 8.3438 c 0,0.88044 0.0804,1.6907 0.24414,2.4277 0.18429,0.71664 0.4723,1.3299 0.86133,1.8418 0.40951,0.51188 0.95127,0.9106 1.627,1.1973 0.67568,0.28664 1.5251,0.43164 2.5488,0.43164 0.92139,0 1.7316,-0.08428 2.4277,-0.24805 0.69615,-0.1638 1.381,-0.38718 2.0566,-0.67383 l -0.36719,-1.0449 c -0.59377,0.24571 -1.209,0.44066 -1.8438,0.58398 -0.61427,0.12284 -1.3098,0.18359 -2.0879,0.18359 -0.819,0 -1.495,-0.1019 -2.0274,-0.30664 -0.53235,-0.20477 -0.95264,-0.50159 -1.2598,-0.89062 -0.30716,-0.40951 -0.52364,-0.89052 -0.64649,-1.4434 -0.12283,-0.57331 -0.18359,-1.2189 -0.18359,-1.9355 v -8.4668 h 7.8633 v -1.166 h -7.8613 v -4.0801 z m -40.84,0.04102 0.37305,3.918 h -5.4805 l 0.35547,2.3086 h 5.2832 l 0.61914,5.1836 c 0,0 0.25607,2.2261 0.61328,3.2734 0.37043,1.0861 0.82677,1.9128 1.6289,2.7012 0.62671,0.61584 1.2908,1.0543 2.1113,1.4355 0.63425,0.29476 1.9207,0.61736 2.6777,0.625 2.4674,0.02343 3.7969,-0.9043 3.7969,-0.9043 l -0.48828,-1.9629 c 0,0 -0.84646,0.36674 -1.25,0.45508 -0.44263,0.09721 -0.68446,0.14054 -1.1152,0.11133 -0.43502,-0.02948 -0.79148,-0.06019 -1.1895,-0.23828 -0.37334,-0.16709 -0.5923,-0.44668 -0.76758,-0.67578 -1.0722,-1.4014 -1.5254,-5.5156 -1.5254,-5.5156 l -0.43555,-4.4883 h 5.6934 l -0.35352,-2.3086 h -5.5625 l -0.42773,-3.8965 z m -15.971,3.918 c 0,0 1.0014,10.87 1.7441,14.764 0.04936,0.25878 0.24347,0.51778 0.47266,0.63476 0.23607,0.12057 0.7793,0.13086 0.7793,0.13086 h 3.4043 c -0.88699,-5.7933 -1.6934,-14.213 -1.6934,-14.213 0,0 -0.01421,-0.54998 -0.47852,-0.98438 -0.42276,-0.39573 -1.1992,-0.33203 -1.1992,-0.33203 z m 40.605,0.04883 c -0.98281,0 -1.843,0.10386 -2.5801,0.30859 -0.71664,0.20478 -1.3191,0.49082 -1.8105,0.85938 -0.47092,0.34809 -0.81969,0.76641 -1.0449,1.2578 -0.22522,0.47092 -0.33789,0.9735 -0.33789,1.5059 0,1.0852 0.51335,1.9561 1.5371,2.6113 1.0238,0.63473 2.4757,1.1353 4.3594,1.5039 1.1671,0.24571 2.0879,0.50141 2.7637,0.76758 0.69616,0.24571 1.2203,0.51216 1.5684,0.79883 0.36854,0.26616 0.60271,0.55223 0.70508,0.85938 0.10235,0.28664 0.1543,0.59427 0.1543,0.92188 0,0.77807 -0.37916,1.4648 -1.1367,2.0586 -0.7576,0.57331 -1.8949,0.85938 -3.4102,0.85938 -1.5561,0 -2.8561,-0.19301 -3.9004,-0.58203 -1.0238,-0.40952 -1.9536,-0.93361 -2.793,-1.5684 l -0.70703,0.98438 c 0.88044,0.61427 1.9248,1.156 3.1328,1.627 1.2285,0.47092 2.6109,0.70703 4.1465,0.70703 0.96235,0 1.8225,-0.11267 2.5801,-0.33789 0.7576,-0.22522 1.3905,-0.52207 1.9023,-0.89062 0.53236,-0.38903 0.93305,-0.83086 1.1992,-1.3223 0.26615,-0.51188 0.39844,-1.0429 0.39844,-1.5957 0,-0.55284 -0.09114,-1.0446 -0.27539,-1.4746 -0.1638,-0.42999 -0.48413,-0.81989 -0.95508,-1.168 -0.45044,-0.36854 -1.0833,-0.69575 -1.9023,-0.98242 -0.79855,-0.28664 -1.8322,-0.56196 -3.1016,-0.82812 -1.6585,-0.34809 -2.8871,-0.74877 -3.6855,-1.1992 -0.77807,-0.45047 -1.168,-1.0657 -1.168,-1.8438 0,-0.3481 0.07149,-0.67334 0.21484,-0.98047 0.14332,-0.32761 0.37941,-0.61564 0.70703,-0.86133 0.32761,-0.24567 0.76748,-0.43871 1.3203,-0.58203 0.55284,-0.1638 1.2288,-0.24609 2.0273,-0.24609 1.0033,0 1.9241,0.15186 2.7637,0.45898 0.83948,0.28664 1.587,0.67657 2.2422,1.168 l 0.73828,-0.98243 c -0.71664,-0.51188 -1.5963,-0.94291 -2.6406,-1.291 -1.0238,-0.34809 -2.029,-0.52146 -3.0117,-0.52148 z m 36.893,0 c -0.96235,0 -1.8831,0.17341 -2.7637,0.52148 -0.85996,0.3481 -1.6163,0.85066 -2.2715,1.5059 -0.6552,0.6552 -1.1774,1.4742 -1.5664,2.457 -0.36854,0.96235 -0.55274,2.0567 -0.55274,3.2852 0,1.2285 0.18417,2.3247 0.55274,3.2871 0.38903,0.94187 0.9112,1.7414 1.5664,2.3965 0.6552,0.6552 1.4116,1.1558 2.2715,1.5039 0.88044,0.3481 1.8012,0.52148 2.7637,0.52148 0.96235,0 1.8745,-0.17341 2.7344,-0.52148 0.88043,-0.34809 1.6495,-0.84871 2.3047,-1.5039 0.6552,-0.6552 1.1646,-1.4547 1.5332,-2.3965 0.38903,-0.96235 0.58398,-2.0586 0.58398,-3.2871 0,-1.2285 -0.19498,-2.3228 -0.58398,-3.2852 -0.36854,-0.98283 -0.87798,-1.8018 -1.5332,-2.457 -0.6552,-0.6552 -1.4243,-1.1578 -2.3047,-1.5059 -0.85996,-0.34809 -1.7721,-0.52148 -2.7344,-0.52148 z m 37.354,0 c -0.96186,1.78e-4 -1.8926,0.18436 -2.793,0.55273 -0.88044,0.3481 -1.6603,0.85948 -2.3359,1.5352 -0.67568,0.6552 -1.2194,1.4655 -1.6289,2.4277 -0.40948,0.96235 -0.61132,2.0369 -0.61132,3.2246 0,1.208 0.20182,2.2915 0.61132,3.2539 0.40952,0.96235 0.96398,1.7833 1.6602,2.459 0.71664,0.6552 1.5464,1.1558 2.4883,1.5039 0.94187,0.3481 1.945,0.52148 3.0098,0.52148 1.3104,0 2.4047,-0.17341 3.2852,-0.52148 0.88044,-0.36854 1.6495,-0.77805 2.3047,-1.2285 l -0.55469,-1.0137 c -0.69615,0.47092 -1.4417,0.86085 -2.2402,1.168 -0.79855,0.28664 -1.6999,0.42969 -2.7031,0.42969 -0.85996,0 -1.679,-0.13228 -2.457,-0.39844 -0.75759,-0.28664 -1.4355,-0.69811 -2.0293,-1.2305 -0.5938,-0.53236 -1.0728,-1.1976 -1.4414,-1.9961 -0.34806,-0.79855 -0.53221,-1.7087 -0.55273,-2.7324 h 12.531 c 0.041,-0.18429 0.0605,-0.36846 0.0605,-0.55273 v -0.58398 c 0,-1.0647 -0.15383,-2.016 -0.46093,-2.8555 -0.30713,-0.83948 -0.74898,-1.5478 -1.3223,-2.1211 -0.57331,-0.59379 -1.2669,-1.0425 -2.0859,-1.3496 -0.81862,-0.32746 -1.7296,-0.49203 -2.7324,-0.49219 z m -16.719,0.0039 c -1.2955,0 -2.49,0.07133 -3.584,0.21484 -1.0652,0.12915 -2.0148,0.29519 -2.8496,0.49609 v 14.764 h 1.3906 v -13.682 c 0.92125,-0.18656 2.152,-0.49932 3.9023,-0.5332 1.3418,-0.02608 3.5885,0.05103 4.5098,0.25195 l 0.64648,-1.2109 c -0.60459,-0.11475 -1.2504,-0.19324 -1.9414,-0.23633 -0.69095,-0.04305 -1.3833,-0.06445 -2.0742,-0.06445 z m 16.75,1.1641 c 1.4947,0 2.734,0.45947 3.7168,1.3809 0.98283,0.9214 1.5226,2.334 1.625,4.2383 h -11.299 c 0.10238,-0.90091 0.3365,-1.6985 0.70507,-2.3945 0.36855,-0.69616 0.81921,-1.2791 1.3516,-1.75 0.55284,-0.4914 1.1553,-0.86173 1.8105,-1.1074 0.67568,-0.24571 1.3732,-0.36715 2.0898,-0.36719 z m -37.385,0.0293 c 0.81903,0 1.5754,0.16458 2.2715,0.49219 0.71663,0.30712 1.323,0.75777 1.8144,1.3516 0.5119,0.57331 0.91062,1.26 1.1973,2.0586 0.28668,0.79855 0.42969,1.6872 0.42969,2.6699 0,0.96235 -0.14303,1.844 -0.42969,2.6426 -0.28663,0.79855 -0.68538,1.4833 -1.1973,2.0566 -0.4914,0.57331 -1.0978,1.024 -1.8144,1.3516 -0.69616,0.30712 -1.4526,0.46289 -2.2715,0.46289 -0.83948,0 -1.6065,-0.1558 -2.3027,-0.46289 -0.69616,-0.32761 -1.3006,-0.77825 -1.8125,-1.3516 -0.49143,-0.57331 -0.87935,-1.2581 -1.166,-2.0566 -0.28664,-0.79855 -0.43164,-1.6802 -0.43164,-2.6426 0,-0.9828 0.14503,-1.8715 0.43164,-2.6699 0.28668,-0.79855 0.67459,-1.4853 1.166,-2.0586 0.51188,-0.59379 1.1163,-1.0444 1.8125,-1.3516 0.69616,-0.32761 1.4632,-0.49219 2.3027,-0.49219 z m -95.82,1.373 c 1.5087,0.01512 2.9445,0.22406 3.9258,0.80078 3.0831,1.4808 2.6803,7.5324 2.6035,9.2715 0,0 -1.5915,0.44929 -3.3379,0.55859 -1.6683,0.10443 -3.7782,0.04249 -4.9824,-0.17578 -0.84305,-0.15284 -1.8216,-0.36279 -2.4316,-0.83203 -0.59164,-0.45502 -0.99596,-1.2425 -1.2578,-1.9414 -0.78458,-2.2521 -1.5156,-6.8086 -1.5156,-6.8086 0,0 3.677,-0.90596 6.9961,-0.87305 z m -4.8711,15.943 a 2.4457,2.4237 0 0 0 -2.4473,2.4238 2.4457,2.4237 0 0 0 2.4473,2.4219 2.4457,2.4237 0 0 0 2.4453,-2.4219 2.4457,2.4237 0 0 0 -2.4453,-2.4238 z m 15.449,0 a 2.4457,2.4237 0 0 0 -2.4453,2.4238 2.4457,2.4237 0 0 0 2.4453,2.4219 2.4457,2.4237 0 0 0 2.4453,-2.4219 2.4457,2.4237 0 0 0 -2.4453,-2.4238 z"
           id="path46" /><g
           transform="matrix(0.75521,0,0,0.75521,3.1013,11.597)"
           id="g58"><g
             transform="matrix(0.72025,0,0,0.72025,-9.2851,7.6804)"
             id="g56"><path
               style="fill:url(#linearGradient5193)"
               inkscape:connector-curvature="0"
               d="m 15.149,-31.533 c 0,0 0.24802,2.9818 0.63778,5.4594 0.33258,2.114 0.39275,2.371 0.69041,3.6532 0.26896,1.1586 0.47229,1.7179 0.80255,2.0656 0.3069,0.32308 0.57164,0.4188 0.87648,0.50747 0.74169,0.21574 2.1356,0.30448 3.2259,0.30448 1.0902,0 2.4157,-0.01222 3.1545,-0.19484 0.3338,-0.08254 0.68002,-0.15955 1.1208,-0.37966 0.3722,-0.18584 0.60834,-0.42352 0.60834,-0.42352 0,0 -0.28411,-1.6654 -0.49431,-2.5937 -0.14085,-0.62201 -0.28277,-1.2837 -0.58892,-1.8432 -0.15504,-0.28333 -0.35288,-0.52047 -0.63277,-0.68164 -0.32511,-0.18721 -0.85742,-0.35197 -1.2298,-0.3972 -0.49,-0.05953 -1.0252,-0.16633 -2.4622,-0.15913 -1.4444,0.0073 -2.9602,0.32641 -2.9602,0.32641 0,0 -0.21309,-1.6429 -0.34458,-2.4703 -0.1205,-0.75824 -0.29571,-2.2842 -0.29571,-2.2842 0,0 -0.05812,-0.39845 -0.18795,-0.53692 -0.12244,-0.13058 -0.49494,-0.20988 -0.49494,-0.20988 z m 39.523,3.2447 -6.42e-4,1.8175 h -1.9973 v 0.51937 h 1.9835 v 3.7158 c 0,0.39211 0.03607,0.75244 0.10901,1.0807 0.08207,0.31916 0.21016,0.59275 0.38342,0.82072 0.18238,0.22797 0.42394,0.40549 0.72486,0.53316 0.30092,0.12766 0.67929,0.19171 1.1352,0.19171 0.41035,0 0.77068,-0.03669 1.0807,-0.10963 0.31004,-0.07295 0.61565,-0.17306 0.91657,-0.30072 l -0.16414,-0.46487 c -0.26444,0.10943 -0.53804,0.19617 -0.82072,0.26 -0.27357,0.05471 -0.58384,0.08145 -0.93036,0.08145 -0.36475,0 -0.66571,-0.04539 -0.9028,-0.13658 -0.23709,-0.09119 -0.42394,-0.22332 -0.56072,-0.39658 -0.13679,-0.18238 -0.23285,-0.39659 -0.28756,-0.6428 -0.0547,-0.25533 -0.08208,-0.54291 -0.08208,-0.86207 v -3.7703 h 3.5022 v -0.51937 h -3.5015 v -1.8175 z m -18.189,0.01817 0.16665,1.7454 h -2.4409 l 0.15788,1.0281 h 2.3532 l 0.27566,2.308 c 0,0 0.11408,0.99208 0.27316,1.4585 0.16497,0.48371 0.36825,0.85121 0.72549,1.2023 0.27911,0.27427 0.57496,0.46985 0.94038,0.63966 0.28247,0.13128 0.85503,0.2754 1.1922,0.2788 1.0989,0.01043 1.6916,-0.40284 1.6916,-0.40284 l -0.21802,-0.8746 c 0,0 -0.37662,0.16364 -0.55634,0.20299 -0.19713,0.04329 -0.30497,0.0625 -0.49682,0.04949 -0.19374,-0.01318 -0.35216,-0.02656 -0.5294,-0.10588 -0.16627,-0.07441 -0.26401,-0.19932 -0.34207,-0.30135 -0.47751,-0.62412 -0.67913,-2.4565 -0.67913,-2.4565 l -0.19422,-1.9986 h 2.5355 l -0.15725,-1.0281 h -2.4772 l -0.19108,-1.7354 z m -7.1121,1.7454 c 0,0 0.44545,4.8413 0.77624,6.5752 0.02199,0.11526 0.10905,0.23045 0.21113,0.28255 0.10514,0.0537 0.34646,0.05764 0.34646,0.05764 h 1.5168 c -0.39503,-2.5801 -0.75494,-6.329 -0.75494,-6.329 0,0 -0.0063,-0.24509 -0.21301,-0.43855 -0.18828,-0.17624 -0.53378,-0.14786 -0.53378,-0.14786 z m 18.084,0.0213 c -0.4377,0 -0.82073,0.04602 -1.149,0.1372 -0.31916,0.09119 -0.58809,0.21866 -0.80694,0.3828 -0.20973,0.15502 -0.36456,0.34187 -0.46487,0.56072 -0.10031,0.20973 -0.15036,0.43327 -0.15036,0.67036 0,0.4833 0.2282,0.87099 0.68414,1.1628 0.45594,0.28268 1.1026,0.5056 1.9415,0.66974 0.51977,0.10943 0.93016,0.22353 1.2311,0.34207 0.31004,0.10943 0.5429,0.22819 0.69793,0.35586 0.16414,0.11854 0.26892,0.24601 0.31451,0.3828 0.04559,0.12766 0.06829,0.26446 0.06829,0.41036 0,0.34652 -0.1682,0.65213 -0.50559,0.91658 -0.3374,0.25533 -0.84386,0.3828 -1.5187,0.3828 -0.69303,0 -1.2722,-0.08611 -1.7373,-0.25937 -0.45594,-0.18238 -0.87037,-0.41524 -1.2442,-0.69793 l -0.31451,0.43793 c 0.39211,0.27357 0.85722,0.51513 1.3952,0.72487 0.54713,0.20973 1.1624,0.31451 1.8463,0.31451 0.42859,0 0.81161,-0.05006 1.149,-0.15036 0.3374,-0.10031 0.61969,-0.23244 0.84766,-0.39658 0.23709,-0.17326 0.41524,-0.36944 0.53378,-0.58829 0.11854,-0.22797 0.17793,-0.46488 0.17793,-0.71108 0,-0.24621 -0.04135,-0.46508 -0.12342,-0.65658 -0.07296,-0.1915 -0.21504,-0.36498 -0.42478,-0.52 -0.20061,-0.16414 -0.48228,-0.31026 -0.84703,-0.43793 -0.35564,-0.12766 -0.81608,-0.25047 -1.3814,-0.36901 -0.73863,-0.15502 -1.2858,-0.33317 -1.6414,-0.53378 -0.34652,-0.20062 -0.52,-0.47421 -0.52,-0.82072 0,-0.15502 0.0314,-0.30052 0.09523,-0.4373 0.06383,-0.1459 0.1686,-0.274 0.31451,-0.38342 0.1459,-0.10942 0.34208,-0.19554 0.58829,-0.25937 0.24621,-0.07295 0.54716,-0.10964 0.9028,-0.10964 0.44682,0 0.85721,0.06808 1.2311,0.20487 0.37387,0.12766 0.70684,0.30115 0.99865,0.52 l 0.32829,-0.43793 c -0.31916,-0.22797 -0.71089,-0.41948 -1.176,-0.57451 -0.45594,-0.15502 -0.90302,-0.23243 -1.3407,-0.23244 z m 16.43,0 c -0.42859,0 -0.83834,0.07741 -1.2305,0.23243 -0.38299,0.15502 -0.72001,0.37856 -1.0118,0.67036 -0.2918,0.2918 -0.52467,0.6568 -0.69792,1.0945 -0.16414,0.42859 -0.24622,0.91639 -0.24622,1.4635 0,0.54711 0.08208,1.0349 0.24622,1.4635 0.17326,0.41947 0.40612,0.77514 0.69792,1.0669 0.2918,0.2918 0.62882,0.51534 1.0118,0.67036 0.39211,0.15502 0.80187,0.23243 1.2305,0.23243 0.42859,0 0.83493,-0.07741 1.2179,-0.23243 0.39211,-0.15502 0.73441,-0.37856 1.0262,-0.67036 0.2918,-0.2918 0.51875,-0.64747 0.6829,-1.0669 0.17326,-0.42859 0.26,-0.91639 0.26,-1.4635 0,-0.54711 -0.08675,-1.0349 -0.26,-1.4635 -0.16414,-0.43771 -0.39109,-0.8027 -0.6829,-1.0945 -0.2918,-0.2918 -0.6341,-0.51534 -1.0262,-0.67036 -0.38299,-0.15502 -0.78934,-0.23243 -1.2179,-0.23243 z m 16.636,0 c -0.42837,8e-5 -0.84321,0.08216 -1.2442,0.24622 -0.39211,0.15502 -0.73908,0.38322 -1.04,0.68414 -0.30092,0.2918 -0.54311,0.65214 -0.72549,1.0807 -0.18237,0.42859 -0.27253,0.90706 -0.27253,1.436 0,0.53801 0.09015,1.0211 0.27253,1.4497 0.18238,0.42859 0.42923,0.79358 0.73928,1.0945 0.31916,0.2918 0.68882,0.51534 1.1083,0.67036 0.41947,0.15502 0.86592,0.23243 1.3401,0.23243 0.58361,0 1.0714,-0.07741 1.4635,-0.23243 0.39211,-0.16414 0.73442,-0.34632 1.0262,-0.54694 l -0.24684,-0.45171 c -0.31004,0.20973 -0.64239,0.38322 -0.99802,0.52 -0.35564,0.12766 -0.7567,0.19108 -1.2035,0.19108 -0.38299,0 -0.74799,-0.05876 -1.0945,-0.1773 -0.3374,-0.12766 -0.63897,-0.31048 -0.90342,-0.54757 -0.26445,-0.23709 -0.47803,-0.53338 -0.64217,-0.88901 -0.15501,-0.35564 -0.23708,-0.76136 -0.24622,-1.2173 h 5.5809 c 0.01825,-0.08207 0.02694,-0.16415 0.02694,-0.24622 v -0.26 c 0,-0.47418 -0.06872,-0.89793 -0.2055,-1.2718 -0.13678,-0.37387 -0.33296,-0.68882 -0.58828,-0.94414 -0.25533,-0.26445 -0.56498,-0.46466 -0.92974,-0.60145 -0.36458,-0.14583 -0.77011,-0.21921 -1.2167,-0.21928 h -6.42e-4 z m -7.446,0.0019 c -0.57697,0 -1.1085,0.03194 -1.5957,0.09586 -0.4744,0.05752 -0.8981,0.13106 -1.2699,0.22053 v 6.5758 h 0.61962 v -6.094 c 0.41029,-0.08308 0.95836,-0.22236 1.7379,-0.23745 0.59759,-0.01157 1.5983,0.0233 2.0086,0.11277 l 0.28756,-0.53942 c -0.26926,-0.05111 -0.55686,-0.08607 -0.86458,-0.10525 -0.30772,-0.01918 -0.61575,-0.02882 -0.92347,-0.02882 z m 7.4598,0.51812 c 0.66568,0 1.2175,0.20488 1.6552,0.61523 0.43771,0.41035 0.67865,1.0396 0.72424,1.8877 h -5.0327 c 0.0456,-0.40123 0.15036,-0.7569 0.31451,-1.0669 0.16414,-0.31004 0.36498,-0.56964 0.60207,-0.77937 0.24621,-0.21885 0.51451,-0.38301 0.80632,-0.49243 0.30092,-0.10943 0.6112,-0.16414 0.93036,-0.16415 z m -16.65,0.01378 c 0.36476,0 0.70239,0.07275 1.0124,0.21865 0.31916,0.13678 0.58871,0.33762 0.80756,0.60207 0.22798,0.25533 0.40549,0.56094 0.53315,0.91658 0.12767,0.35564 0.19171,0.75203 0.19171,1.1897 0,0.42859 -0.06405,0.82094 -0.19171,1.1766 -0.12766,0.35564 -0.30518,0.66062 -0.53315,0.91595 -0.21885,0.25533 -0.4884,0.45617 -0.80756,0.60207 -0.31004,0.13678 -0.64768,0.20549 -1.0124,0.20549 -0.37387,0 -0.71492,-0.06872 -1.025,-0.20549 -0.31004,-0.1459 -0.5796,-0.34674 -0.80756,-0.60207 -0.21886,-0.25533 -0.39171,-0.56032 -0.51938,-0.91595 -0.12766,-0.35564 -0.19233,-0.74799 -0.19233,-1.1766 0,-0.4377 0.06468,-0.8341 0.19233,-1.1897 0.12767,-0.35564 0.30052,-0.66125 0.51938,-0.91658 0.22797,-0.26445 0.49752,-0.46529 0.80756,-0.60207 0.31004,-0.1459 0.65109,-0.21865 1.025,-0.21865 z m -42.674,0.61083 c 0.67192,0.0067 1.311,0.09963 1.748,0.35648 1.3731,0.65947 1.1945,3.3548 1.1603,4.1293 0,0 -0.70953,0.20004 -1.4873,0.24872 -0.74301,0.04651 -1.6822,0.01889 -2.2185,-0.07832 -0.37546,-0.06807 -0.8115,-0.16128 -1.0832,-0.37026 -0.26349,-0.20265 -0.44348,-0.55331 -0.5601,-0.86458 -0.34942,-1.003 -0.67537,-3.0323 -0.67537,-3.0323 0,0 1.638,-0.40372 3.1162,-0.38906 z"
               id="path48" /><path
               style="fill:#ce2f96"
               inkscape:connector-curvature="0"
               d="m 28.923,-28.852 c 0,0 0.08577,0.79165 0.23642,1.0279 0.136,0.21327 0.35018,0.33766 0.5702,0.42691 0.28802,0.11683 1.6874,0.15298 1.6874,0.15298 0,0 -0.0909,-0.80814 -0.23642,-1.0987 -0.07231,-0.14439 -0.17262,-0.28447 -0.30596,-0.37552 -0.1126,-0.07688 -0.25398,-0.10936 -0.3894,-0.12516 -0.58658,-0.06846 -1.5623,-0.0086 -1.5623,-0.0086 z"
               id="path50" /><ellipse
               cx="19.041"
               cy="-17.179001"
               rx="1.0892"
               ry="1.0793999"
               style="fill:#67666a;paint-order:normal"
               id="ellipse52" /><ellipse
               cx="25.922001"
               cy="-17.179001"
               rx="1.0892"
               ry="1.0793999"
               style="fill:#67666a;paint-order:normal"
               id="ellipse54" /></g></g></g></g></g></svg>