<?xml version="1.0" encoding="UTF-8"?>
<svg width="1200" height="80" version="1.1" viewBox="0 0 1125 75" xmlns="http://www.w3.org/2000/svg" xmlns:xlink="http://www.w3.org/1999/xlink">
 <defs>
  <filter id="filter4530-8" x="-.0036777" y="-.01628" width="1.0074" height="1.0326" color-interpolation-filters="sRGB">
   <feGaussianBlur stdDeviation="0.23505127"/>
  </filter>
  <linearGradient id="linearGradient5193" x1="10.583" x2="13.758" y1="2.8836" y2="12.609" gradientTransform="matrix(1.2124,0,0,1.2124,14.48,-33.096)" gradientUnits="userSpaceOnUse">
   <stop stop-color="#ce2f96" offset="0"/>
   <stop stop-color="#00a9f0" offset="1"/>
  </linearGradient>
 </defs>
 <text x="87.504463" y="-49.304604" fill="#000000" font-family="purisa" font-size="25px" letter-spacing="0px" stroke-width=".9375" word-spacing="0px" style="line-height:1.25" xml:space="preserve"><tspan x="87.504463" y="-26.179604" stroke-width=".9375"/></text>
 <g transform="translate(384.38 -2.3314)" stroke-width="1.0437" aria-label="font code">
  <path d="m218.08 71.946 0.14677-2.8865 0.14677-4.8923h-1.0355q0.0326-0.22016 0.0408-0.45662h1.0111q0.0408-1.1823 0.0652-1.3862 0.0489-0.43216 0.14677-0.67677 0.0978-0.25277 0.25277-0.43216 0.15493-0.17939 0.4077-0.32616 0.26092-0.15492 0.60339-0.23646 0.34246-0.08154 0.79092-0.08154 0.26093 0 0.53 0.03261 0.27724 0.03262 0.75016 0.13046 0.0163 0.24462 0.0734 0.56262-0.76647-0.26908-1.3943-0.26908-0.35061 0-0.636 0.09785-0.27723 0.08969-0.44846 0.22016-0.17124 0.13046-0.29354 0.33431-0.11416 0.20385-0.17124 0.44846-0.0571 0.24462-0.0815 0.7257 0 0.09785-0.0245 0.85616h2.4299q-0.0326 0.212-0.0408 0.45662h-2.4054l-0.18754 7.7788q-0.212-0.0082-0.34247-0.0082-0.1223 0-0.33431 0.0082z"/>
  <path d="m225.89 63.539q0.75831 0 1.4677 0.212 0.70939 0.212 1.2476 0.7257 0.54631 0.50554 0.8317 1.3291 0.28538 0.82354 0.28538 1.7449 0 0.99477-0.30169 1.908-0.3017 0.91324-0.85616 1.5329-0.55446 0.61154-1.3046 0.86431-0.74201 0.25277-1.5819 0.25277-0.58708 0-1.1578-0.13862-0.56261-0.13046-1.06-0.44846-0.48923-0.318-0.86431-0.82354-0.36693-0.50554-0.56262-1.1986-0.18754-0.69308-0.18754-1.4432 0-1.3128 0.48923-2.3972 0.48924-1.0926 1.4596-1.6063 0.97846-0.51369 2.0956-0.51369zm-0.0163 0.45662q-0.97031 0-1.802 0.47292-0.8317 0.47293-1.2231 1.4432-0.39139 0.97031-0.39139 2.1282 0 0.81539 0.22016 1.5329 0.2283 0.71754 0.72569 1.2149 0.49739 0.48923 1.0682 0.68493 0.57893 0.18754 1.2149 0.18754 0.72569 0 1.3617-0.23646 0.636-0.23646 1.1171-0.79093 0.48923-0.55446 0.71754-1.3617 0.22831-0.80724 0.22831-1.7123 0-0.83985-0.22831-1.5737-0.22015-0.742-0.69308-1.1823-0.47292-0.44846-1.0763-0.62785-0.60339-0.17939-1.2394-0.17939z"/>
  <path d="m231.46 71.946 0.27723-4.982 0.0734-2.3402q0.0163-0.62785 0.0163-0.91324 0.212 0.0082 0.318 0.0082 0.0978 0 0.30985-0.0082l-0.106 1.8591q0.17939-0.38323 0.29354-0.57893 0.12231-0.20385 0.32616-0.43216 0.20384-0.22831 0.48108-0.424 0.28538-0.20385 0.67677-0.33431 0.39954-0.13862 0.81539-0.19569 0.41584-0.06523 0.82354-0.06523 0.68493 0 1.3291 0.15492 0.64416 0.15492 1.0682 0.53816 0.424 0.37508 0.57893 0.87246 0.16307 0.48923 0.16307 1.0519 0 0.25277-0.0245 0.75016l-0.17123 3.71-0.0326 1.3291q-0.16308-0.0082-0.31801-0.0082-0.15492 0-0.30984 0.0082 0.0815-1.0192 0.13046-1.9488l0.11415-2.0874q0.0652-1.1579 0.0652-1.6715 0-0.53816-0.15492-0.96216t-0.53816-0.70123q-0.37507-0.28539-0.89692-0.40769-0.52185-0.13046-1.0763-0.13046-0.77461 0-1.3698 0.212-0.56262 0.20385-0.98662 0.60339-0.424 0.39139-0.69308 0.99477-0.20385 0.44031-0.30985 1.2312-0.0978 0.68493-0.16307 2.2423-0.0571 1.5492-0.0571 2.6256-0.212-0.0082-0.32616-0.0082-0.11415 0-0.32615 0.0082z"/>
  <path d="m244.35 71.432q-0.0652 0.24462-0.0978 0.5137-0.66046 0.16308-1.2149 0.16308-0.46477 0-0.83169-0.106-0.35877-0.09785-0.58708-0.35877-0.22831-0.26908-0.3017-0.58708-0.0734-0.32616-0.0734-0.69308 0-0.06523 0-0.20385 8e-3 -0.13862 0.0326-0.61154l0.26908-5.3979h-1.0029q0.0326-0.22016 0.0408-0.44031h0.99478q0.0408-0.5137 0.0652-1.5329 0.30985-0.04077 0.53816-0.106-0.0571 1.3209-0.0571 1.6389h2.4462q-0.0326 0.22016-0.0408 0.44031h-2.4298l-0.26908 5.5936-8e-3 0.33431q0 0.68493 0.15493 0.99477 0.16308 0.30985 0.44846 0.44846 0.29354 0.13862 0.60339 0.13862 0.22015 0 0.46477-0.03262 0.25277-0.04077 0.85616-0.19569z"/>
  <path d="m255.48 71.294q-0.0815 0.33431-0.11415 0.6197-1.0356 0.20385-1.9325 0.20385-0.848 0-1.59-0.23646-0.73385-0.23646-1.2638-0.75831-0.53001-0.53-0.79093-1.3209-0.25277-0.79908-0.25277-1.6715 0-1.1905 0.39954-2.2668 0.40769-1.0763 1.2883-1.696 0.88878-0.62785 2.3972-0.62785 1.1008 0 2.0956 0.30169 8e-3 0.26908 0.0571 0.57077-0.848-0.26092-1.3291-0.33431-0.48108-0.08154-0.88062-0.08154-0.85616 0-1.5166 0.33431-0.66046 0.32616-1.1008 0.92954-0.43216 0.60339-0.6197 1.3535-0.17938 0.742-0.17938 1.4922 0 0.80724 0.20385 1.5085 0.20384 0.70123 0.65231 1.1415 0.44846 0.44031 1.1008 0.67677 0.65231 0.22831 1.3698 0.22831 0.39954 0 0.84801-0.07339 0.44846-0.08154 1.1578-0.29354z"/>
  <path d="m261.21 63.539q0.75831 0 1.4677 0.212t1.2475 0.7257q0.54631 0.50554 0.8317 1.3291 0.28539 0.82354 0.28539 1.7449 0 0.99477-0.3017 1.908-0.30169 0.91324-0.85616 1.5329-0.55446 0.61154-1.3046 0.86431-0.742 0.25277-1.5818 0.25277-0.58708 0-1.1578-0.13862-0.56262-0.13046-1.06-0.44846-0.48923-0.318-0.86431-0.82354-0.36692-0.50554-0.56262-1.1986-0.18754-0.69308-0.18754-1.4432 0-1.3128 0.48924-2.3972 0.48923-1.0926 1.4595-1.6063 0.97847-0.51369 2.0956-0.51369zm-0.0163 0.45662q-0.97031 0-1.802 0.47292-0.83169 0.47293-1.2231 1.4432-0.39138 0.97031-0.39138 2.1282 0 0.81539 0.22015 1.5329 0.22831 0.71754 0.7257 1.2149 0.49738 0.48923 1.0682 0.68493 0.57893 0.18754 1.2149 0.18754 0.7257 0 1.3617-0.23646 0.63601-0.23646 1.1171-0.79093 0.48924-0.55446 0.71755-1.3617 0.2283-0.80724 0.2283-1.7123 0-0.83985-0.2283-1.5737-0.22016-0.742-0.69308-1.1823-0.47293-0.44846-1.0763-0.62785-0.60338-0.17939-1.2394-0.17939z"/>
  <path d="m273.87 71.946q-0.212-0.0082-0.318-0.0082-0.11416 0-0.32616 0.0082l0.12231-2.0711q-0.19569 0.47292-0.36692 0.75016-0.16308 0.27723-0.424 0.54631-0.25278 0.26092-0.6197 0.47292t-0.848 0.34246-0.99478 0.13046q-0.79092 0-1.484-0.28539-0.68493-0.28539-1.166-0.80723-0.47293-0.53-0.68493-1.2149-0.20384-0.69308-0.20384-1.4595 0-1.0355 0.38323-1.9977 0.38323-0.96216 1.1089-1.6145 0.73385-0.66046 1.6552-0.92954 0.92954-0.26908 1.9569-0.26908 0.83985 0 1.8346 0.17938 0.0408-0.77462 0.0408-1.484 0-0.62785-0.0245-1.4188 0.212 0.0082 0.34246 0.0082t0.33431-0.0082q-0.0897 1.5248-0.13861 3.1963l-0.11416 3.9465q-0.0652 2.2668-0.0652 2.9843zm-0.39954-7.6647q-0.57893-0.17938-1.0029-0.22831-0.424-0.05708-0.80723-0.05708-0.91324 0-1.7449 0.26092-0.8317 0.26092-1.4514 0.848-0.6197 0.58708-0.96216 1.484-0.33431 0.89693-0.33431 1.7694 0 0.96216 0.36692 1.7531 0.37508 0.79093 1.0518 1.1742 0.68493 0.37508 1.5248 0.37508 0.49739 0 0.90508-0.11416 0.41585-0.12231 0.742-0.33431 0.33431-0.212 0.62785-0.56262 0.3017-0.35877 0.52185-0.83985 0.22831-0.48108 0.33431-1.0519t0.14677-1.7531z"/>
  <path d="m282.42 71.155q-0.0652 0.30169-0.0978 0.61154-0.67678 0.19569-1.2149 0.26908-0.53816 0.08154-1.1008 0.08154-0.97846 0-1.7368-0.26092-0.75016-0.26908-1.2883-0.88062-0.53815-0.6197-0.76646-1.3862t-0.22831-1.6308q0-1.1334 0.39139-2.12 0.39138-0.99477 1.2883-1.6471 0.89693-0.65231 2.226-0.65231 0.91323 0 1.6552 0.34246 0.742 0.33431 1.1497 1.1008 0.41584 0.76646 0.41584 1.8183 0 0.19569-0.0163 0.37508l-6.4497 0.0082q-0.0408 0.53-0.0408 0.79908 0 0.77462 0.22831 1.5003 0.22831 0.7257 0.68493 1.2149 0.46477 0.48923 1.1089 0.7257 0.64415 0.23646 1.3617 0.23646 1.0926 0 2.4298-0.50554zm-5.6996-4.4194 5.7974 0.0082q-8e-3 -0.56262-0.0652-0.86431-0.0571-0.30169-0.212-0.6197-0.15493-0.318-0.37508-0.54631-0.212-0.23646-0.50554-0.39139-0.28539-0.16308-0.64416-0.24462-0.35877-0.08154-0.75016-0.08154-0.43215 0-0.848 0.09785t-0.75831 0.26908q-0.34246 0.17123-0.64416 0.44031-0.29354 0.26092-0.48923 0.57077-0.18754 0.30985-0.29354 0.59523-0.0978 0.27723-0.212 0.76646z"/>
 </g>
 <g transform="matrix(3.0653 0 0 3.0653 517.48 60.153)">
  <g transform="matrix(1.7628 0 0 1.7628 -35.754 -50.528)">
   <g transform="matrix(.82484 0 0 .82484 12.154 32.505)">
    <g transform="matrix(.72025 0 0 .72025 -9.2851 7.6804)">
     <g transform="matrix(1.6832,0,0,1.6832,3.6217,-31.646)">
      <path transform="matrix(.24225 0 0 .24225 1.3706 -12.113)" d="m11.307 52.176s0.55648 6.6947 1.4316 12.258c0.74677 4.7467 0.88242 5.3241 1.5508 8.2031 0.60392 2.6015 1.0612 3.858 1.8027 4.6387 0.68911 0.72544 1.2823 0.93957 1.9668 1.1387 1.6654 0.48442 4.796 0.68359 7.2441 0.68359 2.4479 0 5.4251-0.0276 7.084-0.4375 0.74951-0.18533 1.5259-0.35733 2.5156-0.85156 0.83573-0.41728 1.3652-0.95117 1.3652-0.95117s-0.6374-3.7398-1.1094-5.8242c-0.31626-1.3967-0.63484-2.8824-1.3223-4.1387-0.34812-0.63618-0.79146-1.1694-1.4199-1.5312-0.73-0.42036-1.9256-0.78906-2.7617-0.89062-1.1002-0.13368-2.3027-0.3736-5.5293-0.35742-3.2432 0.01625-6.6465 0.73242-6.6465 0.73242s-0.47819-3.689-0.77344-5.5469c-0.27057-1.7025-0.66406-5.1289-0.66406-5.1289s-0.13036-0.89416-0.42188-1.2051c-0.27493-0.29322-1.1113-0.47266-1.1113-0.47266zm32.188 5.9707c-0.71235 0.0144-1.2598 0.04883-1.2598 0.04883s0.193 1.7781 0.53125 2.3086c0.30539 0.47887 0.78722 0.75663 1.2812 0.95703 0.64672 0.26234 3.7891 0.34375 3.7891 0.34375s-0.20449-1.8144-0.53125-2.4668c-0.16237-0.32421-0.3881-0.63931-0.6875-0.84375-0.25281-0.17261-0.57093-0.24576-0.875-0.28125-0.65855-0.07686-1.5357-0.0808-2.248-0.06641zm56.557 1.3145v4.0801h-4.4863v1.166h4.4551v8.3438c0 0.88044 0.0804 1.6907 0.24414 2.4277 0.18429 0.71664 0.4723 1.3299 0.86133 1.8418 0.40951 0.51188 0.95127 0.9106 1.627 1.1973 0.67568 0.28664 1.5251 0.43164 2.5488 0.43164 0.92139 0 1.7316-0.08428 2.4277-0.24805 0.69615-0.1638 1.381-0.38718 2.0566-0.67383l-0.36719-1.0449c-0.59377 0.24571-1.209 0.44066-1.8438 0.58398-0.61427 0.12284-1.3098 0.18359-2.0879 0.18359-0.819 0-1.495-0.1019-2.0274-0.30664-0.53235-0.20477-0.95264-0.50159-1.2598-0.89062-0.30716-0.40951-0.52364-0.89052-0.64649-1.4434-0.12283-0.57331-0.18359-1.2189-0.18359-1.9355v-8.4668h7.8633v-1.166h-7.8613v-4.0801zm-40.84 0.04102 0.37305 3.918h-5.4805l0.35547 2.3086h5.2832l0.61914 5.1836s0.25607 2.2261 0.61328 3.2734c0.37043 1.0861 0.82677 1.9128 1.6289 2.7012 0.62671 0.61584 1.2908 1.0543 2.1113 1.4355 0.63425 0.29476 1.9207 0.61736 2.6777 0.625 2.4674 0.02343 3.7969-0.9043 3.7969-0.9043l-0.48828-1.9629s-0.84646 0.36674-1.25 0.45508c-0.44263 0.09721-0.68446 0.14054-1.1152 0.11133-0.43502-0.02948-0.79148-0.06019-1.1895-0.23828-0.37334-0.16709-0.5923-0.44668-0.76758-0.67578-1.0722-1.4014-1.5254-5.5156-1.5254-5.5156l-0.43555-4.4883h5.6934l-0.35352-2.3086h-5.5625l-0.42773-3.8965zm-15.971 3.918s1.0014 10.87 1.7441 14.764c0.04936 0.25878 0.24347 0.51778 0.47266 0.63476 0.23607 0.12057 0.7793 0.13086 0.7793 0.13086h3.4043c-0.88699-5.7933-1.6934-14.213-1.6934-14.213s-0.01421-0.54998-0.47852-0.98438c-0.42276-0.39573-1.1992-0.33203-1.1992-0.33203zm40.605 0.04883c-0.98281 0-1.843 0.10386-2.5801 0.30859-0.71664 0.20478-1.3191 0.49082-1.8105 0.85938-0.47092 0.34809-0.81969 0.76641-1.0449 1.2578-0.22522 0.47092-0.33789 0.9735-0.33789 1.5059 0 1.0852 0.51335 1.9561 1.5371 2.6113 1.0238 0.63473 2.4757 1.1353 4.3594 1.5039 1.1671 0.24571 2.0879 0.50141 2.7637 0.76758 0.69616 0.24571 1.2203 0.51216 1.5684 0.79883 0.36854 0.26616 0.60271 0.55223 0.70508 0.85938 0.10235 0.28664 0.1543 0.59427 0.1543 0.92188 0 0.77807-0.37916 1.4648-1.1367 2.0586-0.7576 0.57331-1.8949 0.85938-3.4102 0.85938-1.5561 0-2.8561-0.19301-3.9004-0.58203-1.0238-0.40952-1.9536-0.93361-2.793-1.5684l-0.70703 0.98438c0.88044 0.61427 1.9248 1.156 3.1328 1.627 1.2285 0.47092 2.6109 0.70703 4.1465 0.70703 0.96235 0 1.8225-0.11267 2.5801-0.33789s1.3905-0.52207 1.9023-0.89062c0.53236-0.38903 0.93305-0.83086 1.1992-1.3223 0.26615-0.51188 0.39844-1.0429 0.39844-1.5957 0-0.55284-0.09114-1.0446-0.27539-1.4746-0.1638-0.42999-0.48413-0.81989-0.95508-1.168-0.45044-0.36854-1.0833-0.69575-1.9023-0.98242-0.79855-0.28664-1.8322-0.56196-3.1016-0.82812-1.6585-0.34809-2.8871-0.74877-3.6855-1.1992-0.77807-0.45047-1.168-1.0657-1.168-1.8438 0-0.3481 0.07149-0.67334 0.21484-0.98047 0.14332-0.32761 0.37941-0.61564 0.70703-0.86133 0.32761-0.24567 0.76748-0.43871 1.3203-0.58203 0.55284-0.1638 1.2288-0.24609 2.0273-0.24609 1.0033 0 1.9241 0.15186 2.7637 0.45898 0.83948 0.28664 1.587 0.67657 2.2422 1.168l0.73828-0.98243c-0.71664-0.51188-1.5963-0.94291-2.6406-1.291-1.0238-0.34809-2.029-0.52146-3.0117-0.52148zm36.893 0c-0.96235 0-1.8831 0.17341-2.7637 0.52148-0.85996 0.3481-1.6163 0.85066-2.2715 1.5059-0.6552 0.6552-1.1774 1.4742-1.5664 2.457-0.36854 0.96235-0.55274 2.0567-0.55274 3.2852s0.18417 2.3247 0.55274 3.2871c0.38903 0.94187 0.9112 1.7414 1.5664 2.3965 0.6552 0.6552 1.4116 1.1558 2.2715 1.5039 0.88044 0.3481 1.8012 0.52148 2.7637 0.52148 0.96235 0 1.8745-0.17341 2.7344-0.52148 0.88043-0.34809 1.6495-0.84871 2.3047-1.5039 0.6552-0.6552 1.1646-1.4547 1.5332-2.3965 0.38903-0.96235 0.58398-2.0586 0.58398-3.2871s-0.19498-2.3228-0.58398-3.2852c-0.36854-0.98283-0.87798-1.8018-1.5332-2.457-0.6552-0.6552-1.4243-1.1578-2.3047-1.5059-0.85996-0.34809-1.7721-0.52148-2.7344-0.52148zm37.354 0c-0.96186 1.78e-4 -1.8926 0.18436-2.793 0.55273-0.88044 0.3481-1.6603 0.85948-2.3359 1.5352-0.67568 0.6552-1.2194 1.4655-1.6289 2.4277-0.40948 0.96235-0.61132 2.0369-0.61132 3.2246 0 1.208 0.20182 2.2915 0.61132 3.2539 0.40952 0.96235 0.96398 1.7833 1.6602 2.459 0.71664 0.6552 1.5464 1.1558 2.4883 1.5039 0.94187 0.3481 1.945 0.52148 3.0098 0.52148 1.3104 0 2.4047-0.17341 3.2852-0.52148 0.88044-0.36854 1.6495-0.77805 2.3047-1.2285l-0.55469-1.0137c-0.69615 0.47092-1.4417 0.86085-2.2402 1.168-0.79855 0.28664-1.6999 0.42969-2.7031 0.42969-0.85996 0-1.679-0.13228-2.457-0.39844-0.75759-0.28664-1.4355-0.69811-2.0293-1.2305-0.5938-0.53236-1.0728-1.1976-1.4414-1.9961-0.34806-0.79855-0.53221-1.7087-0.55273-2.7324h12.531c0.041-0.18429 0.0605-0.36846 0.0605-0.55273v-0.58398c0-1.0647-0.15383-2.016-0.46093-2.8555-0.30713-0.83948-0.74898-1.5478-1.3223-2.1211-0.57331-0.59379-1.2669-1.0425-2.0859-1.3496-0.81862-0.32746-1.7296-0.49203-2.7324-0.49219zm-16.719 0.0039c-1.2955 0-2.49 0.07133-3.584 0.21484-1.0652 0.12915-2.0148 0.29519-2.8496 0.49609v14.764h1.3906v-13.682c0.92125-0.18656 2.152-0.49932 3.9023-0.5332 1.3418-0.02608 3.5885 0.05103 4.5098 0.25195l0.64648-1.2109c-0.60459-0.11475-1.2504-0.19324-1.9414-0.23633-0.69095-0.04305-1.3833-0.06445-2.0742-0.06445zm16.75 1.1641c1.4947 0 2.734 0.45947 3.7168 1.3809 0.98283 0.9214 1.5226 2.334 1.625 4.2383h-11.299c0.10238-0.90091 0.3365-1.6985 0.70507-2.3945 0.36855-0.69616 0.81921-1.2791 1.3516-1.75 0.55284-0.4914 1.1553-0.86173 1.8105-1.1074 0.67568-0.24571 1.3732-0.36715 2.0898-0.36719zm-37.385 0.0293c0.81903 0 1.5754 0.16458 2.2715 0.49219 0.71663 0.30712 1.323 0.75777 1.8144 1.3516 0.5119 0.57331 0.91062 1.26 1.1973 2.0586 0.28668 0.79855 0.42969 1.6872 0.42969 2.6699 0 0.96235-0.14303 1.844-0.42969 2.6426-0.28663 0.79855-0.68538 1.4833-1.1973 2.0566-0.4914 0.57331-1.0978 1.024-1.8144 1.3516-0.69616 0.30712-1.4526 0.46289-2.2715 0.46289-0.83948 0-1.6065-0.1558-2.3027-0.46289-0.69616-0.32761-1.3006-0.77825-1.8125-1.3516-0.49143-0.57331-0.87935-1.2581-1.166-2.0566-0.28664-0.79855-0.43164-1.6802-0.43164-2.6426 0-0.9828 0.14503-1.8715 0.43164-2.6699 0.28668-0.79855 0.67459-1.4853 1.166-2.0586 0.51188-0.59379 1.1163-1.0444 1.8125-1.3516 0.69616-0.32761 1.4632-0.49219 2.3027-0.49219zm-95.82 1.373c1.5087 0.01512 2.9445 0.22406 3.9258 0.80078 3.0831 1.4808 2.6803 7.5324 2.6035 9.2715 0 0-1.5915 0.44929-3.3379 0.55859-1.6683 0.10443-3.7782 0.04249-4.9824-0.17578-0.84305-0.15284-1.8216-0.36279-2.4316-0.83203-0.59164-0.45502-0.99596-1.2425-1.2578-1.9414-0.78458-2.2521-1.5156-6.8086-1.5156-6.8086s3.677-0.90596 6.9961-0.87305zm-4.8711 15.943a2.4457 2.4237 0 0 0 -2.4473 2.4238 2.4457 2.4237 0 0 0 2.4473 2.4219 2.4457 2.4237 0 0 0 2.4453 -2.4219 2.4457 2.4237 0 0 0 -2.4453 -2.4238zm15.449 0a2.4457 2.4237 0 0 0 -2.4453 2.4238 2.4457 2.4237 0 0 0 2.4453 2.4219 2.4457 2.4237 0 0 0 2.4453 -2.4219 2.4457 2.4237 0 0 0 -2.4453 -2.4238z" fill="#ccc" filter="url(#filter4530-8)" opacity=".7" stroke-width="2.2454"/>
      <g transform="matrix(.75521 0 0 .75521 3.1013 11.597)">
       <g transform="matrix(.72025 0 0 .72025 -9.2851 7.6804)">
        <path d="m15.149-31.533s0.24802 2.9818 0.63778 5.4594c0.33258 2.114 0.39275 2.371 0.69041 3.6532 0.26896 1.1586 0.47229 1.7179 0.80255 2.0656 0.3069 0.32308 0.57164 0.4188 0.87648 0.50747 0.74169 0.21574 2.1356 0.30448 3.2259 0.30448 1.0902 0 2.4157-0.01222 3.1545-0.19484 0.3338-0.08254 0.68002-0.15955 1.1208-0.37966 0.3722-0.18584 0.60834-0.42352 0.60834-0.42352s-0.28411-1.6654-0.49431-2.5937c-0.14085-0.62201-0.28277-1.2837-0.58892-1.8432-0.15504-0.28333-0.35288-0.52047-0.63277-0.68164-0.32511-0.18721-0.85742-0.35197-1.2298-0.3972-0.49-0.05953-1.0252-0.16633-2.4622-0.15913-1.4444 0.0073-2.9602 0.32641-2.9602 0.32641s-0.21309-1.6429-0.34458-2.4703c-0.1205-0.75824-0.29571-2.2842-0.29571-2.2842s-0.05812-0.39845-0.18795-0.53692c-0.12244-0.13058-0.49494-0.20988-0.49494-0.20988zm39.523 3.2447-6.42e-4 1.8175h-1.9973v0.51937h1.9835v3.7158c0 0.39211 0.03607 0.75244 0.10901 1.0807 0.08207 0.31916 0.21016 0.59275 0.38342 0.82072 0.18238 0.22797 0.42394 0.40549 0.72486 0.53316 0.30092 0.12766 0.67929 0.19171 1.1352 0.19171 0.41035 0 0.77068-0.03669 1.0807-0.10963 0.31004-0.07295 0.61565-0.17306 0.91657-0.30072l-0.16414-0.46487c-0.26444 0.10943-0.53804 0.19617-0.82072 0.26-0.27357 0.05471-0.58384 0.08145-0.93036 0.08145-0.36475 0-0.66571-0.04539-0.9028-0.13658s-0.42394-0.22332-0.56072-0.39658c-0.13679-0.18238-0.23285-0.39659-0.28756-0.6428-0.0547-0.25533-0.08208-0.54291-0.08208-0.86207v-3.7703h3.5022v-0.51937h-3.5015v-1.8175zm-18.189 0.01817 0.16665 1.7454h-2.4409l0.15788 1.0281h2.3532l0.27566 2.308s0.11408 0.99208 0.27316 1.4585c0.16497 0.48371 0.36825 0.85121 0.72549 1.2023 0.27911 0.27427 0.57496 0.46985 0.94038 0.63966 0.28247 0.13128 0.85503 0.2754 1.1922 0.2788 1.0989 0.01043 1.6916-0.40284 1.6916-0.40284l-0.21802-0.8746s-0.37662 0.16364-0.55634 0.20299c-0.19713 0.04329-0.30497 0.0625-0.49682 0.04949-0.19374-0.01318-0.35216-0.02656-0.5294-0.10588-0.16627-0.07441-0.26401-0.19932-0.34207-0.30135-0.47751-0.62412-0.67913-2.4565-0.67913-2.4565l-0.19422-1.9986h2.5355l-0.15725-1.0281h-2.4772l-0.19108-1.7354zm-7.1121 1.7454s0.44545 4.8413 0.77624 6.5752c0.02199 0.11526 0.10905 0.23045 0.21113 0.28255 0.10514 0.0537 0.34646 0.05764 0.34646 0.05764h1.5168c-0.39503-2.5801-0.75494-6.329-0.75494-6.329s-0.0063-0.24509-0.21301-0.43855c-0.18828-0.17624-0.53378-0.14786-0.53378-0.14786zm18.084 0.0213c-0.4377 0-0.82073 0.04602-1.149 0.1372-0.31916 0.09119-0.58809 0.21866-0.80694 0.3828-0.20973 0.15502-0.36456 0.34187-0.46487 0.56072-0.10031 0.20973-0.15036 0.43327-0.15036 0.67036 0 0.4833 0.2282 0.87099 0.68414 1.1628 0.45594 0.28268 1.1026 0.5056 1.9415 0.66974 0.51977 0.10943 0.93016 0.22353 1.2311 0.34207 0.31004 0.10943 0.5429 0.22819 0.69793 0.35586 0.16414 0.11854 0.26892 0.24601 0.31451 0.3828 0.04559 0.12766 0.06829 0.26446 0.06829 0.41036 0 0.34652-0.1682 0.65213-0.50559 0.91658-0.3374 0.25533-0.84386 0.3828-1.5187 0.3828-0.69303 0-1.2722-0.08611-1.7373-0.25937-0.45594-0.18238-0.87037-0.41524-1.2442-0.69793l-0.31451 0.43793c0.39211 0.27357 0.85722 0.51513 1.3952 0.72487 0.54713 0.20973 1.1624 0.31451 1.8463 0.31451 0.42859 0 0.81161-0.05006 1.149-0.15036 0.3374-0.10031 0.61969-0.23244 0.84766-0.39658 0.23709-0.17326 0.41524-0.36944 0.53378-0.58829 0.11854-0.22797 0.17793-0.46488 0.17793-0.71108 0-0.24621-0.04135-0.46508-0.12342-0.65658-0.07296-0.1915-0.21504-0.36498-0.42478-0.52-0.20061-0.16414-0.48228-0.31026-0.84703-0.43793-0.35564-0.12766-0.81608-0.25047-1.3814-0.36901-0.73863-0.15502-1.2858-0.33317-1.6414-0.53378-0.34652-0.20062-0.52-0.47421-0.52-0.82072 0-0.15502 0.0314-0.30052 0.09523-0.4373 0.06383-0.1459 0.1686-0.274 0.31451-0.38342 0.1459-0.10942 0.34208-0.19554 0.58829-0.25937 0.24621-0.07295 0.54716-0.10964 0.9028-0.10964 0.44682 0 0.85721 0.06808 1.2311 0.20487 0.37387 0.12766 0.70684 0.30115 0.99865 0.52l0.32829-0.43793c-0.31916-0.22797-0.71089-0.41948-1.176-0.57451-0.45594-0.15502-0.90302-0.23243-1.3407-0.23244zm16.43 0c-0.42859 0-0.83834 0.07741-1.2305 0.23243-0.38299 0.15502-0.72001 0.37856-1.0118 0.67036-0.2918 0.2918-0.52467 0.6568-0.69792 1.0945-0.16414 0.42859-0.24622 0.91639-0.24622 1.4635s0.08208 1.0349 0.24622 1.4635c0.17326 0.41947 0.40612 0.77514 0.69792 1.0669 0.2918 0.2918 0.62882 0.51534 1.0118 0.67036 0.39211 0.15502 0.80187 0.23243 1.2305 0.23243 0.42859 0 0.83493-0.07741 1.2179-0.23243 0.39211-0.15502 0.73441-0.37856 1.0262-0.67036 0.2918-0.2918 0.51875-0.64747 0.6829-1.0669 0.17326-0.42859 0.26-0.91639 0.26-1.4635s-0.08675-1.0349-0.26-1.4635c-0.16414-0.43771-0.39109-0.8027-0.6829-1.0945-0.2918-0.2918-0.6341-0.51534-1.0262-0.67036-0.38299-0.15502-0.78934-0.23243-1.2179-0.23243zm16.636 0c-0.42837 8e-5 -0.84321 0.08216-1.2442 0.24622-0.39211 0.15502-0.73908 0.38322-1.04 0.68414-0.30092 0.2918-0.54311 0.65214-0.72549 1.0807-0.18237 0.42859-0.27253 0.90706-0.27253 1.436 0 0.53801 0.09015 1.0211 0.27253 1.4497 0.18238 0.42859 0.42923 0.79358 0.73928 1.0945 0.31916 0.2918 0.68882 0.51534 1.1083 0.67036 0.41947 0.15502 0.86592 0.23243 1.3401 0.23243 0.58361 0 1.0714-0.07741 1.4635-0.23243 0.39211-0.16414 0.73442-0.34632 1.0262-0.54694l-0.24684-0.45171c-0.31004 0.20973-0.64239 0.38322-0.99802 0.52-0.35564 0.12766-0.7567 0.19108-1.2035 0.19108-0.38299 0-0.74799-0.05876-1.0945-0.1773-0.3374-0.12766-0.63897-0.31048-0.90342-0.54757s-0.47803-0.53338-0.64217-0.88901c-0.15501-0.35564-0.23708-0.76136-0.24622-1.2173h5.5809c0.01825-0.08207 0.02694-0.16415 0.02694-0.24622v-0.26c0-0.47418-0.06872-0.89793-0.2055-1.2718s-0.33296-0.68882-0.58828-0.94414c-0.25533-0.26445-0.56498-0.46466-0.92974-0.60145-0.36458-0.14583-0.77011-0.21921-1.2167-0.21928h-6.42e-4zm-7.446 0.0019c-0.57697 0-1.1085 0.03194-1.5957 0.09586-0.4744 0.05752-0.8981 0.13106-1.2699 0.22053v6.5758h0.61962v-6.094c0.41029-0.08308 0.95836-0.22236 1.7379-0.23745 0.59759-0.01157 1.5983 0.0233 2.0086 0.11277l0.28756-0.53942c-0.26926-0.05111-0.55686-0.08607-0.86458-0.10525s-0.61575-0.02882-0.92347-0.02882zm7.4598 0.51812c0.66568 0 1.2175 0.20488 1.6552 0.61523 0.43771 0.41035 0.67865 1.0396 0.72424 1.8877h-5.0327c0.0456-0.40123 0.15036-0.7569 0.31451-1.0669 0.16414-0.31004 0.36498-0.56964 0.60207-0.77937 0.24621-0.21885 0.51451-0.38301 0.80632-0.49243 0.30092-0.10943 0.6112-0.16414 0.93036-0.16415zm-16.65 0.01378c0.36476 0 0.70239 0.07275 1.0124 0.21865 0.31916 0.13678 0.58871 0.33762 0.80756 0.60207 0.22798 0.25533 0.40549 0.56094 0.53315 0.91658 0.12767 0.35564 0.19171 0.75203 0.19171 1.1897 0 0.42859-0.06405 0.82094-0.19171 1.1766-0.12766 0.35564-0.30518 0.66062-0.53315 0.91595-0.21885 0.25533-0.4884 0.45617-0.80756 0.60207-0.31004 0.13678-0.64768 0.20549-1.0124 0.20549-0.37387 0-0.71492-0.06872-1.025-0.20549-0.31004-0.1459-0.5796-0.34674-0.80756-0.60207-0.21886-0.25533-0.39171-0.56032-0.51938-0.91595-0.12766-0.35564-0.19233-0.74799-0.19233-1.1766 0-0.4377 0.06468-0.8341 0.19233-1.1897 0.12767-0.35564 0.30052-0.66125 0.51938-0.91658 0.22797-0.26445 0.49752-0.46529 0.80756-0.60207 0.31004-0.1459 0.65109-0.21865 1.025-0.21865zm-42.674 0.61083c0.67192 0.0067 1.311 0.09963 1.748 0.35648 1.3731 0.65947 1.1945 3.3548 1.1603 4.1293 0 0-0.70953 0.20004-1.4873 0.24872-0.74301 0.04651-1.6822 0.01889-2.2185-0.07832-0.37546-0.06807-0.8115-0.16128-1.0832-0.37026-0.26349-0.20265-0.44348-0.55331-0.5601-0.86458-0.34942-1.003-0.67537-3.0323-0.67537-3.0323s1.638-0.40372 3.1162-0.38906z" fill="url(#linearGradient5193)"/>
        <path d="m28.923-28.852s0.08577 0.79165 0.23642 1.0279c0.136 0.21327 0.35018 0.33766 0.5702 0.42691 0.28802 0.11683 1.6874 0.15298 1.6874 0.15298s-0.0909-0.80814-0.23642-1.0987c-0.07231-0.14439-0.17262-0.28447-0.30596-0.37552-0.1126-0.07688-0.25398-0.10936-0.3894-0.12516-0.58658-0.06846-1.5623-0.0086-1.5623-0.0086z" fill="#ce2f96"/>
        <ellipse cx="19.041" cy="-17.179" rx="1.0892" ry="1.0794" fill="#67666a" style="paint-order:normal"/>
        <ellipse cx="25.922" cy="-17.179" rx="1.0892" ry="1.0794" fill="#67666a" style="paint-order:normal"/>
       </g>
      </g>
     </g>
    </g>
   </g>
  </g>
 </g>
</svg>
